<?xml version="1.0" standalone="no"?>
<!DOCTYPE svg PUBLIC "-//W3C//DTD SVG 20010904//EN"
 "http://www.w3.org/TR/2001/REC-SVG-20010904/DTD/svg10.dtd">
<svg version="1.0" xmlns="http://www.w3.org/2000/svg"
 width="800.000000pt" height="209.000000pt" viewBox="0 0 800.000000 209.000000"
 preserveAspectRatio="xMidYMid meet">
<metadata>
Created by potrace 1.16, written by Peter Selinger 2001-2019
</metadata>
<g transform="translate(0.000000,209.000000) scale(0.100000,-0.100000)"
fill="#000000" stroke="none">
<path d="M6915 1886 c-88 -28 -119 -44 -184 -96 -55 -44 -141 -152 -141 -178
0 -9 28 11 68 49 208 200 471 242 739 117 35 -17 67 -27 71 -23 10 10 -64 72
-118 100 -81 41 -147 55 -259 55 -82 -1 -122 -6 -176 -24z"/>
<path d="M7029 1810 c0 -21 -18 -213 -25 -282 -4 -33 -1 -78 5 -105 15 -57 61
-163 71 -163 14 0 20 45 21 175 1 107 3 123 11 90 6 -23 7 -82 3 -140 -12
-163 -11 -208 3 -212 15 -6 55 78 77 162 32 126 16 198 -80 360 -71 119 -85
137 -86 115z"/>
<path d="M533 1700 c-122 -32 -218 -95 -286 -188 -53 -72 -47 -91 11 -33 177
177 427 225 658 125 47 -20 88 -34 91 -30 9 9 -49 59 -105 89 -102 56 -244 70
-369 37z"/>
<path d="M607 1580 c-3 -30 -11 -103 -17 -161 -13 -116 -8 -148 36 -247 37
-84 49 -60 49 98 0 71 3 121 7 112 11 -28 9 -161 -4 -245 -9 -58 -9 -80 0 -89
33 -33 92 113 92 227 0 86 -13 125 -81 240 -77 129 -76 129 -82 65z"/>
<path d="M6560 1544 c0 -3 24 -34 54 -67 30 -34 83 -112 119 -172 73 -124 139
-193 220 -230 62 -30 74 -31 81 -7 11 34 -4 -484 -15 -547 -10 -52 -19 -72
-50 -106 -40 -43 -69 -58 -198 -96 -59 -18 -70 -24 -56 -32 22 -12 131 -1 193
19 26 9 61 27 78 40 27 20 31 21 27 6 -6 -23 7 -33 87 -65 80 -33 126 -44 214
-53 54 -5 68 -4 64 7 -2 7 -20 18 -39 25 -52 19 -23 16 61 -6 89 -23 80 -22
80 -10 0 15 -69 55 -130 75 -111 35 -173 86 -199 164 -18 56 -47 444 -33 449
6 2 26 31 44 64 36 67 107 150 171 200 30 23 21 9 -34 -48 -94 -98 -160 -194
-135 -194 2 0 50 20 107 45 88 38 112 53 159 103 60 63 149 216 187 318 35 99
30 103 -42 36 -49 -46 -93 -75 -180 -116 -181 -87 -248 -164 -279 -322 l-14
-69 -1 65 c-3 161 -39 268 -115 338 -54 49 -108 78 -274 142 -123 48 -152 57
-152 44z"/>
<path d="M180 1384 c0 -4 24 -35 54 -70 29 -34 74 -100 100 -146 67 -119 113
-169 189 -206 74 -37 84 -38 90 -14 9 33 7 -224 -3 -366 -15 -222 -40 -258
-207 -308 -51 -15 -93 -31 -93 -36 0 -14 113 -9 167 7 27 8 66 25 85 38 34 24
34 24 34 3 -1 -29 134 -83 238 -94 81 -9 119 0 76 17 -37 15 -12 13 50 -4 30
-8 57 -12 60 -9 11 11 -44 44 -118 71 -92 34 -164 96 -181 158 -6 22 -19 120
-28 218 -16 165 -16 180 -1 188 9 5 26 30 39 56 13 26 54 79 92 118 l69 70
-59 -70 c-75 -88 -103 -129 -103 -149 0 -13 4 -13 33 3 17 10 50 24 72 31 105
34 174 109 262 285 45 89 78 173 71 180 -2 2 -29 -19 -59 -48 -38 -36 -92 -70
-171 -109 -70 -34 -130 -71 -153 -95 -45 -45 -81 -119 -95 -193 -6 -29 -12
-56 -15 -58 -3 -3 -5 31 -5 76 0 154 -38 242 -133 310 -59 43 -357 165 -357
146z"/>
<path d="M6376 1233 c30 -329 231 -584 530 -672 39 -12 76 -21 83 -21 6 0 11
18 11 44 l0 44 -82 25 c-153 48 -298 166 -387 314 -22 37 -64 127 -93 200 -28
73 -56 133 -60 133 -5 0 -6 -30 -2 -67z"/>
<path d="M7796 1229 c-12 -62 -108 -289 -147 -350 -97 -150 -270 -271 -419
-295 -22 -4 -43 -11 -46 -16 -4 -5 2 -30 11 -55 20 -52 17 -52 148 -1 174 67
325 203 402 363 56 115 75 191 75 299 0 86 -12 114 -24 55z"/>
<path d="M5578 1153 c-8 -10 -20 -27 -26 -39 -10 -18 -25 -22 -117 -31 -58 -5
-108 -13 -112 -16 -14 -15 11 -21 98 -25 l91 -5 -6 -31 c-3 -17 -21 -83 -39
-146 -37 -126 -31 -117 -206 -302 -47 -49 -78 -75 -84 -69 -5 5 -12 102 -15
216 -5 228 -7 235 -67 235 -29 0 -38 -6 -62 -42 -35 -52 -69 -125 -113 -240
-19 -48 -35 -86 -37 -84 -2 2 4 44 13 94 20 109 16 124 -28 120 -28 -2 -36
-10 -53 -45 -11 -23 -27 -45 -35 -48 -8 -3 -35 -34 -59 -70 -59 -88 -136 -169
-151 -160 -29 18 23 232 70 292 11 14 20 37 20 50 0 23 -3 24 -57 24 -32 0
-87 2 -122 5 -54 5 -70 2 -108 -17 -42 -22 -123 -101 -123 -120 0 -5 -7 -9
-15 -9 -8 0 -32 -24 -53 -52 -46 -62 -193 -212 -222 -228 -16 -9 -22 -8 -27 6
-14 38 61 412 106 521 36 89 54 154 49 184 -2 20 -8 23 -33 21 -40 -5 -52 -16
-85 -81 -93 -187 -177 -609 -131 -664 7 -9 31 -22 52 -27 56 -15 90 3 197 110
l92 93 -15 -43 c-35 -98 -1 -150 97 -150 40 0 47 4 109 71 37 39 69 67 72 62
2 -4 7 -20 11 -35 8 -33 52 -58 105 -61 48 -2 87 26 147 106 26 34 50 66 54
70 4 4 1 -21 -6 -55 -25 -119 -13 -168 40 -168 33 0 49 22 107 145 28 61 74
158 103 217 l51 107 -3 -164 c-4 -195 5 -227 68 -246 21 -7 49 -9 63 -5 15 3
69 53 129 120 57 62 104 113 105 112 1 -1 -2 -19 -7 -41 -43 -182 54 -277 198
-194 58 33 199 161 242 221 l27 37 14 -77 c23 -134 20 -155 -38 -215 -57 -58
-86 -108 -81 -140 5 -32 78 -51 123 -33 61 26 124 141 126 229 0 42 0 42 114
127 124 91 165 134 146 153 -14 14 -12 15 -122 -79 -46 -39 -96 -79 -111 -88
-33 -21 -32 -23 -49 84 -15 98 -15 119 4 138 15 14 18 14 35 -1 28 -25 80 -33
88 -13 12 32 -6 67 -41 82 -97 40 -215 -8 -215 -87 0 -31 -26 -65 -130 -168
-86 -85 -186 -161 -212 -161 -37 0 -24 106 50 409 l47 194 197 -6 c168 -5 198
-3 209 9 26 32 -20 41 -241 48 -80 3 -145 5 -145 5 0 1 0 18 0 38 0 33 -3 38
-26 41 -15 2 -31 -4 -41 -15z m-1055 -359 c4 -4 0 -19 -8 -33 -8 -14 -25 -51
-39 -81 -28 -60 -146 -214 -185 -239 l-24 -16 5 48 c15 131 202 370 251 321z"/>
<path d="M14 1092 c10 -104 30 -175 77 -271 76 -154 233 -287 398 -335 84 -24
91 -23 91 23 0 38 -1 39 -46 50 -108 27 -240 115 -318 210 -60 74 -85 120
-146 271 -55 136 -64 144 -56 52z"/>
<path d="M3542 1135 c-56 -17 -103 -50 -131 -91 -39 -57 5 -75 67 -28 29 23
33 24 29 8 -9 -28 -54 -261 -62 -316 -4 -27 -12 -48 -17 -48 -6 0 -8 -9 -5
-21 3 -11 -3 -71 -14 -132 -27 -162 -27 -164 21 -177 32 -8 43 -8 53 2 8 7 21
63 31 123 24 151 19 141 76 148 150 18 280 170 280 328 0 102 -32 156 -115
195 -58 27 -143 31 -213 9z m158 -65 c121 -86 51 -327 -114 -395 l-39 -16 7
38 c29 171 47 305 44 340 -2 24 1 45 7 47 25 11 69 4 95 -14z"/>
<path d="M1305 1089 c-12 -55 -102 -268 -134 -318 -30 -47 -108 -128 -163
-170 -40 -32 -146 -79 -206 -93 l-54 -12 6 -35 c10 -61 21 -64 112 -32 208 72
372 234 436 431 23 72 38 260 20 260 -6 0 -13 -14 -17 -31z"/>
<path d="M6600 1100 c0 -5 5 -10 12 -10 6 0 61 -51 122 -113 103 -106 116
-115 179 -136 37 -13 74 -20 82 -17 7 2 16 0 19 -7 2 -7 5 10 5 36 2 126 -100
211 -290 242 -111 18 -129 18 -129 5z"/>
<path d="M1875 1080 c-265 -22 -316 -28 -335 -40 -30 -19 6 -25 162 -28 126
-3 159 -6 155 -16 -34 -88 -158 -689 -145 -702 2 -1 23 -7 46 -12 39 -9 44 -8
57 11 7 12 23 74 35 137 11 63 32 174 45 245 14 72 33 178 42 237 l18 107 85
6 c173 13 212 19 224 38 26 42 -41 45 -389 17z"/>
<path d="M7507 1064 c-15 -8 -76 -28 -135 -43 -133 -36 -151 -43 -189 -75 -44
-37 -57 -75 -48 -142 4 -35 10 -52 15 -44 4 7 9 8 11 2 6 -15 93 11 139 43 44
31 234 224 251 256 12 24 -4 25 -44 3z"/>
<path d="M220 986 c0 -3 48 -53 106 -111 108 -109 152 -138 232 -151 l42 -7 0
39 c-1 114 -91 188 -260 213 -41 7 -85 14 -97 17 -13 2 -23 2 -23 0z"/>
<path d="M1049 945 c-15 -8 -77 -28 -139 -45 -133 -36 -138 -39 -179 -85 -31
-36 -39 -78 -25 -132 5 -18 12 -21 45 -18 64 7 109 38 227 158 124 126 145
162 71 122z"/>
<path d="M2459 841 c-20 -16 -24 -30 -27 -95 -5 -93 1 -121 35 -152 25 -23 25
-24 9 -66 -26 -65 -62 -116 -96 -133 -27 -14 -30 -14 -40 4 -16 31 -12 119 11
213 12 48 19 94 15 103 -9 24 -72 19 -91 -7 -27 -39 -57 -150 -62 -236 -6 -80
-7 -84 -41 -112 -19 -15 -41 -26 -48 -23 -43 16 -43 179 2 326 28 96 27 117
-9 117 -60 0 -124 -140 -142 -312 -12 -124 38 -187 152 -191 40 -2 48 2 82 39
33 35 40 39 57 28 10 -7 42 -16 69 -19 43 -6 53 -4 73 15 30 28 88 118 111
172 l17 41 80 1 80 1 -15 -30 c-8 -16 -17 -57 -19 -91 -4 -52 -1 -64 19 -88
51 -58 142 -51 192 15 34 47 77 134 77 159 0 11 6 22 13 24 6 2 31 9 53 15 39
10 94 53 94 72 0 17 -44 9 -65 -11 -11 -11 -35 -22 -52 -26 l-30 -6 -5 85 c-6
109 -22 137 -79 137 -29 0 -47 -7 -64 -24 -26 -26 -60 -128 -51 -152 3 -9 -1
-14 -13 -14 -10 0 -32 -7 -47 -15 -37 -19 -104 -19 -131 0 -18 13 -20 20 -12
52 12 52 11 160 -1 184 -14 25 -70 25 -101 0z m424 -281 c16 0 27 -5 27 -14 0
-26 -72 -156 -98 -176 -25 -20 -27 -21 -40 -3 -17 23 -8 90 20 156 18 40 25
48 42 43 12 -3 33 -6 49 -6z"/>
<path d="M7003 248 c-35 -17 -63 -34 -63 -39 0 -20 267 -26 287 -6 12 13 -25
36 -87 54 -30 9 -59 17 -65 19 -5 2 -38 -10 -72 -28z"/>
</g>
</svg>
